<?xml version="1.0" encoding="utf-8"?>
<!-- Generator: Adobe Illustrator 24.0.1, SVG Export Plug-In . SVG Version: 6.00 Build 0)  -->
<svg version="1.1" id="Слой_1" xmlns="http://www.w3.org/2000/svg" xmlns:xlink="http://www.w3.org/1999/xlink" x="0px" y="0px"
	 viewBox="0 0 416 416" style="enable-background:new 0 0 416 416;" xml:space="preserve">
<style type="text/css">
	.st0{clip-path:url(#SVGID_2_);}
</style>
<g>
	<defs>
		<rect id="SVGID_1_" x="-48" y="-48" width="512" height="512"/>
	</defs>
	<clipPath id="SVGID_2_">
		<use xlink:href="#SVGID_1_"  style="overflow:visible;"/>
	</clipPath>
	<path class="st0" d="M292.1,129.3L167.3,255l-47.2-47.2l-17.8,17.8l56,56c2.5,2.5,5.9,4.5,8.9,4.5s6.3-2,8.8-4.4l133.7-134.4
		L292.1,129.3"/>
	<path class="st0" d="M208,398.7c-105.1,0-190.7-85.5-190.7-190.7c0-105.1,85.5-190.7,190.7-190.7c105.1,0,190.7,85.5,190.7,190.7
		C398.7,313.1,313.1,398.7,208,398.7 M208,0C93.1,0,0,93.1,0,208s93.1,208,208,208s208-93.1,208-208S322.9,0,208,0z"/>
</g>
</svg>
