<?xml version="1.0" encoding="utf-8"?>
<!-- Generator: Adobe Illustrator 24.0.1, SVG Export Plug-In . SVG Version: 6.00 Build 0)  -->
<svg version="1.1" id="Слой_1" xmlns="http://www.w3.org/2000/svg" xmlns:xlink="http://www.w3.org/1999/xlink" x="0px" y="0px"
	 viewBox="0 0 448 448" style="enable-background:new 0 0 448 448;" xml:space="preserve">
<style type="text/css">
	.st0{clip-path:url(#SVGID_2_);}
</style>
<g>
	<defs>
		<rect id="SVGID_1_" x="-32" y="-32" width="512" height="512"/>
	</defs>
	<clipPath id="SVGID_2_">
		<use xlink:href="#SVGID_1_"  style="overflow:visible;"/>
	</clipPath>
	<path class="st0" d="M359.8,359.8c-18.7,18.7-40.5,33-64.3,42.5l-18.9-61.5c14-6.3,26.8-15.1,38-26.3c11.2-11.2,20-24,26.3-38
		l61.5,18.9C392.8,319.3,378.4,341.1,359.8,359.8 M45.7,295.5l61.5-18.9c6.3,14,15.1,26.8,26.3,38c11.2,11.2,24,20,38,26.3
		l-18.9,61.5c-23.8-9.5-45.6-23.9-64.3-42.5C69.6,341.1,55.2,319.3,45.7,295.5z M88.2,88.2c18.7-18.7,40.5-33,64.3-42.5l18.9,61.5
		c-14,6.3-26.8,15.1-38,26.3c-11.2,11.2-20,24-26.3,38l-61.5-18.9C55.2,128.7,69.6,106.9,88.2,88.2z M224,320c-53,0-96-43-96-96
		s43-96,96-96s96,43,96,96S277,320,224,320z M402.3,152.5l-61.5,18.9c-6.3-14-15.1-26.8-26.3-38c-11.2-11.2-24-20-38-26.3l18.9-61.5
		c23.8,9.5,45.6,23.9,64.3,42.5C378.4,106.9,392.8,128.7,402.3,152.5z M224,0C100.3,0,0,100.3,0,224s100.3,224,224,224
		s224-100.3,224-224S347.7,0,224,0z"/>
</g>
</svg>
